<svg width="28" height="28" viewBox="0 0 28 28" fill="none" xmlns="http://www.w3.org/2000/svg">
<g clip-path="url(#clip0_403_2740)">
<path d="M20.4869 24.5001C20.3003 24.5008 20.1163 24.4568 19.9502 24.3717L14.0002 21.2567L8.05021 24.3717C7.857 24.4733 7.63917 24.5187 7.42147 24.5026C7.20377 24.4866 6.99494 24.4098 6.81871 24.281C6.64249 24.1521 6.50594 23.9765 6.42459 23.7739C6.34325 23.5713 6.32036 23.35 6.35854 23.1351L7.52521 16.5667L2.71854 11.9001C2.56858 11.7504 2.46219 11.5628 2.41081 11.3572C2.35943 11.1517 2.36498 10.936 2.42688 10.7334C2.4945 10.5261 2.61888 10.3418 2.78592 10.2016C2.95296 10.0614 3.15595 9.97077 3.37188 9.94008L10.0219 8.97174L12.9502 2.98674C13.0457 2.78949 13.1949 2.62314 13.3806 2.50674C13.5663 2.39035 13.781 2.32861 14.0002 2.32861C14.2194 2.32861 14.4341 2.39035 14.6198 2.50674C14.8055 2.62314 14.9547 2.78949 15.0502 2.98674L18.0135 8.96007L24.6635 9.92841C24.8795 9.9591 25.0825 10.0497 25.2495 10.1899C25.4165 10.3302 25.5409 10.5144 25.6085 10.7217C25.6704 10.9244 25.676 11.14 25.6246 11.3456C25.5732 11.5511 25.4668 11.7388 25.3169 11.8884L20.5102 16.5551L21.6769 23.1234C21.7185 23.3421 21.6967 23.5682 21.614 23.7749C21.5313 23.9817 21.3912 24.1604 21.2102 24.2901C20.9989 24.4381 20.7446 24.512 20.4869 24.5001Z" fill="url(#paint0_linear_403_2740)"/>
</g>
<defs>
<linearGradient id="paint0_linear_403_2740" x1="3.92438" y1="11.3381" x2="22.7478" y2="12.9915" gradientUnits="userSpaceOnUse">
<stop stop-color="#68C9FF"/>
<stop offset="0.994746" stop-color="#D1B5FF"/>
</linearGradient>
<clipPath id="clip0_403_2740">
<rect width="28" height="28" fill="white"/>
</clipPath>
</defs>
</svg>
