<svg
    version="1.1"
    xmlns="http://www.w3.org/2000/svg"
    xmlns:xlink="http://www.w3.org/1999/xlink"
>
    <symbol xmlns="http://www.w3.org/2000/svg" viewBox="0 0 20 20" id="logOut">
        <g id="Group">
            <path id="Vector"
                d="M7 19H3C2.46957 19 1.96086 18.7893 1.58579 18.4142C1.21071 18.0391 1 17.5304 1 17V3C1 2.46957 1.21071 1.96086 1.58579 1.58579C1.96086 1.21071 2.46957 1 3 1H7"
                stroke-width="2" stroke-linecap="round" stroke-linejoin="round"></path>
            <path id="Vector_2" d="M14 15L19 10L14 5" stroke-width="2"
                stroke-linecap="round" stroke-linejoin="round"></path>
            <path id="Vector_3" d="M19 10H7" stroke-width="2"
                stroke-linecap="round" stroke-linejoin="round"></path>
        </g>
    </symbol>
    <symbol fill="none" xmlns="http://www.w3.org/2000/svg" viewBox="0 0 18 19" id="Crown">
        <path
            d="M4.09069 15.2006C4.09069 15.3653 4.22267 15.5 4.39068 15.5H13.6123C13.7773 15.5 13.9123 15.3653 13.9123 15.2006V14.1049H4.09069V15.2006ZM16.3721 5.60323C16.2612 5.5284 16.1172 5.53434 16.0122 5.6152L12.0464 8.76241L9.26248 3.64484C9.16046 3.4502 8.84249 3.45325 8.73749 3.64484L5.95361 8.76241L1.98779 5.6152C1.88279 5.53137 1.7388 5.5284 1.63081 5.60323C1.51981 5.67811 1.47481 5.81587 1.51382 5.94161L3.97764 13.506H14.0252L16.4861 5.94161C16.5251 5.81587 16.4802 5.67811 16.3721 5.60323Z"
            fill="#FCFFFF"></path>
    </symbol>
    <symbol fill="none" xmlns="http://www.w3.org/2000/svg" viewBox="0 0 8 5" id="arrow">
        <path
            d="M4.00002 3.03251L1.34502 0.377511C1.2045 0.237823 1.01441 0.159417 0.816272 0.159417C0.618133 0.159417 0.428044 0.237823 0.287522 0.377511C0.217226 0.447234 0.16143 0.530184 0.123354 0.621579C0.0852772 0.712973 0.0656737 0.811003 0.0656737 0.910012C0.0656737 1.00902 0.0852772 1.10705 0.123354 1.19844C0.16143 1.28984 0.217226 1.37279 0.287522 1.44251L3.46752 4.62251C3.53724 4.69281 3.6202 4.7486 3.71159 4.78668C3.80298 4.82476 3.90101 4.84436 4.00002 4.84436C4.09903 4.84436 4.19706 4.82476 4.28846 4.78668C4.37985 4.7486 4.4628 4.69281 4.53252 4.62251L7.75002 1.44251C7.81953 1.37243 7.87453 1.28932 7.91185 1.19794C7.94917 1.10656 7.96809 1.00872 7.96752 0.910011C7.96809 0.811306 7.94917 0.71346 7.91185 0.622081C7.87453 0.530703 7.81953 0.447591 7.75002 0.377511C7.6095 0.237823 7.41941 0.159417 7.22127 0.159417C7.02313 0.159417 6.83304 0.237823 6.69252 0.377511L4.00002 3.03251Z"
            fill="#C8D2DC"></path>
    </symbol>
</svg>