<svg width="18" height="18" viewBox="0 0 18 18" fill="none" xmlns="http://www.w3.org/2000/svg">
<g id="Crown">
<path id="Vector" d="M4.09069 14.7006C4.09069 14.8653 4.22267 15 4.39068 15H13.6123C13.7773 15 13.9123 14.8653 13.9123 14.7006V13.6049H4.09069V14.7006ZM16.3721 5.10323C16.2612 5.0284 16.1172 5.03434 16.0122 5.1152L12.0464 8.26241L9.26248 3.14484C9.16046 2.9502 8.84249 2.95325 8.73749 3.14484L5.95361 8.26241L1.98779 5.1152C1.88279 5.03137 1.7388 5.0284 1.63081 5.10323C1.51981 5.17811 1.47481 5.31587 1.51382 5.44161L3.97764 13.006H14.0252L16.4861 5.44161C16.5251 5.31587 16.4802 5.17811 16.3721 5.10323Z" fill="url(#paint0_linear_482_1026)"/>
</g>
<defs>
<linearGradient id="paint0_linear_482_1026" x1="2.49754" y1="7.875" x2="14.5855" y2="9.13916" gradientUnits="userSpaceOnUse">
<stop stop-color="#68C9FF"/>
<stop offset="0.994746" stop-color="#D1B5FF"/>
</linearGradient>
</defs>
</svg>
