<svg width="92" height="92" viewBox="0 0 92 92" fill="none" xmlns="http://www.w3.org/2000/svg">
<g id="Frame" clip-path="url(#clip0_120_3844)">
<g id="Group">
<path id="Vector" d="M78.5241 78.6076C96.4881 60.8174 96.4881 31.9737 78.5241 14.1834C60.5602 -3.60684 31.4349 -3.60684 13.4709 14.1834C-4.49301 31.9737 -4.49301 60.8174 13.4709 78.6076C31.4349 96.3979 60.5602 96.3979 78.5241 78.6076Z" fill="#FCE8E3"/>
<g id="Group_2">
<g id="Group_3">
<path id="Vector_2" d="M58.2745 40.4463H33.9395V67.6717H58.2745V40.4463Z" fill="#E2988F"/>
<g id="Group_4">
<path id="Vector_3" d="M85.4182 70.1033C72.4307 64.3661 58.2731 62.334 58.2731 62.334C51.7794 69.0424 39.6737 69.1322 33.9381 62.334C33.9381 62.334 19.7804 64.3661 6.79297 70.1033C14.8689 83.2264 29.4551 91.9996 46.1097 91.9996C62.7643 91.9996 77.3505 83.2345 85.4182 70.1033Z" fill="#D85D63"/>
<path id="Vector_4" d="M45.7625 70.4864C45.6883 70.4864 45.6059 70.4864 45.5317 70.4864C39.244 70.4211 33.9452 67.679 30.9785 62.9537L31.5059 62.6273C34.349 67.1649 39.4665 69.8009 45.54 69.8662C45.6141 69.8662 45.6883 69.8662 45.7625 69.8662C52.0255 69.8662 57.7198 67.0996 60.6618 62.6191L61.181 62.9537C58.1236 67.6137 52.2315 70.4864 45.7625 70.4864Z" fill="#B73D49"/>
</g>
</g>
<g id="Group_5">
<path id="Vector_5" d="M69.121 25.4381C69.121 38.0225 62.1411 54.3692 46.6979 54.0591C30.0845 54.0591 23.772 39.5487 23.772 26.9643C20.863 18.7868 24.3571 9.90757 30.4141 8.27535C34.1966 2.01579 40.7727 0 47.3818 0C60.0974 0 72.6316 9.25468 69.121 25.4381Z" fill="#4C224B"/>
<path id="Vector_6" d="M69.088 27.1931C67.7942 24.1327 65.1489 25.6343 65.1489 25.6343C65.701 13.6293 59.5205 5.29688 46.1127 5.29688C32.705 5.29688 26.5986 15.2942 27.0765 25.6343C27.0765 25.6343 24.4313 24.1327 23.1375 27.1931C21.8437 30.2535 24.2088 37.4434 25.6674 39.7285C27.126 42.0136 29.3428 41.0506 29.3428 41.0506C29.3428 41.0506 29.8866 46.3064 30.5624 48.0855C31.2381 49.8646 38.8856 58.0665 41.1353 59.3151C44.0855 61.0371 48.4284 61.0371 51.0819 59.3151C53.3317 58.0583 60.9791 49.8646 61.6548 48.0855C62.3306 46.3064 62.858 40.9527 62.858 40.9527C62.858 40.9527 65.083 42.0136 66.5499 39.7285C68.0167 37.4434 70.3818 30.2617 69.088 27.1931Z" fill="#E2988F"/>
<g id="Group_6">
<path id="Vector_7" d="M46.2192 59.7229C40.7556 59.7229 36.7094 55.9769 34.1465 53.1532L34.608 52.7451C37.0967 55.4791 41.0028 59.1108 46.2192 59.1108C51.1472 59.1108 54.7402 55.8953 57.608 52.7451L58.0695 53.1532C55.111 56.4013 51.3944 59.7229 46.2192 59.7229Z" fill="#C46966"/>
<path id="Vector_8" d="M29.2783 37.7316L28.6641 37.7998L29.0362 41.0846L29.6504 41.0163L29.2783 37.7316Z" fill="#C46966"/>
<path id="Vector_9" d="M62.8977 37.7299L62.5605 40.9199L63.1753 40.9836L63.5124 37.7937L62.8977 37.7299Z" fill="#C46966"/>
<g id="Group_7">
<path id="Vector_10" d="M24.8514 34.0889C24.7277 33.64 23.6729 29.6411 25.1315 28.5393C25.6177 28.2292 26.0133 28.2537 26.2688 28.3353C27.0104 28.572 27.3813 29.486 27.4225 29.5921L26.8456 29.8125C26.7632 29.6084 26.4665 29.0453 26.071 28.9229C25.8897 28.8658 25.7002 28.9066 25.4859 29.0453C24.6536 29.6737 25.0162 32.375 25.4447 33.9338L24.8514 34.0889Z" fill="#C46966"/>
<path id="Vector_11" d="M67.3661 34.0891L66.7727 33.9258C67.2012 32.3752 67.5638 29.6658 66.715 29.0292C66.5172 28.9068 66.3277 28.866 66.1464 28.9231C65.7509 29.0455 65.4542 29.6086 65.3718 29.8127L64.7949 29.5923C64.8361 29.4862 65.207 28.5803 65.9486 28.3355C66.1959 28.2539 66.5997 28.2212 67.0611 28.5232C68.5445 29.6331 67.4897 33.632 67.3661 34.0891Z" fill="#C46966"/>
</g>
</g>
<path id="Vector_12" d="M27.0762 25.6337C28.2216 21.7163 29.9769 18.305 32.7293 15.7261C40.4674 24.6543 50.002 30.4732 65.1485 25.6337L66.3187 21.8306C66.3187 21.8306 64.4893 13.7674 64.4893 13.4736C64.4893 13.188 58.4982 7.65479 58.4982 7.65479L50.7025 4.48828H42.676L36.2811 6.27556L30.6362 11.0008L27.0762 18.0847V25.6337Z" fill="#4C224B"/>
</g>
</g>
</g>
</g>
<defs>
<clipPath id="clip0_120_3844">
<rect width="92" height="92" fill="white"/>
</clipPath>
</defs>
</svg>
