<svg width="1355" height="1250" viewBox="0 0 1355 1250" fill="none" xmlns="http://www.w3.org/2000/svg">
<g opacity="0.7" filter="url(#filter0_f_1099_2110)">
<ellipse cx="802.784" cy="647.767" rx="253.216" ry="326.275" transform="rotate(-180 802.784 647.767)" fill="#3626EA"/>
<path d="M521.341 614.559C521.341 434.362 481.95 275 621.797 275C761.644 275 875.013 421.078 875.013 601.275C875.013 781.472 761.644 927.55 621.797 927.55C181.782 889.36 521.341 794.755 521.341 614.559Z" fill="#7E51FF"/>
<path d="M438.379 525.036C472.464 408.408 477.034 297.791 567.825 324.324C658.615 350.858 704.585 466.913 670.5 583.542C636.415 700.17 535.184 773.206 444.393 746.672C165.954 638.469 404.294 641.664 438.379 525.036Z" fill="#376FFF"/>
</g>
<defs>
<filter id="filter0_f_1099_2110" x="-249.065" y="-249.065" width="1853.13" height="1748.13" filterUnits="userSpaceOnUse" color-interpolation-filters="sRGB">
<feFlood flood-opacity="0" result="BackgroundImageFix"/>
<feBlend mode="normal" in="SourceGraphic" in2="BackgroundImageFix" result="shape"/>
<feGaussianBlur stdDeviation="124.532" result="effect1_foregroundBlur_1099_2110"/>
</filter>
</defs>
</svg>
