<svg width="0" height="0" class="hidden">
    <svg width="0" height="0" class="hidden">
        <symbol xmlns="http://www.w3.org/2000/svg" viewBox="0 0 10 13" id="lock">
            <path
                d="M5.00001 0.666656C3.39176 0.666656 2.08334 1.97507 2.08334 3.58332V4.74999H1.50001C0.856593 4.74999 0.333344 5.27324 0.333344 5.91666V11.1667C0.333344 11.8101 0.856593 12.3333 1.50001 12.3333H8.50001C9.14343 12.3333 9.66668 11.8101 9.66668 11.1667V5.91666C9.66668 5.27324 9.14343 4.74999 8.50001 4.74999H7.91668V3.58332C7.91668 1.97507 6.60826 0.666656 5.00001 0.666656ZM3.25001 3.58332C3.25001 2.61849 4.03518 1.83332 5.00001 1.83332C5.96484 1.83332 6.75001 2.61849 6.75001 3.58332V4.74999H3.25001V3.58332ZM8.50118 11.1667H5.58334V9.83782C5.93043 9.63541 6.16668 9.26324 6.16668 8.83332C6.16668 8.18991 5.64343 7.66666 5.00001 7.66666C4.35659 7.66666 3.83334 8.18991 3.83334 8.83332C3.83334 9.26266 4.06959 9.63541 4.41668 9.83782V11.1667H1.50001V5.91666H8.50001L8.50118 11.1667Z"></path>
        </symbol>
        <symbol fill="none" xmlns="http://www.w3.org/2000/svg" viewBox="0 0 18 19"
            id="dropdownArrow">
            <g id="left arrow / 24 / Outline">
                <path id="Vector"
                    d="M9.00002 10.0325L6.34502 7.37751C6.2045 7.23782 6.01441 7.15942 5.81627 7.15942C5.61813 7.15942 5.42804 7.23782 5.28752 7.37751C5.21723 7.44723 5.16143 7.53018 5.12335 7.62158C5.08528 7.71297 5.06567 7.811 5.06567 7.91001C5.06567 8.00902 5.08528 8.10705 5.12335 8.19844C5.16143 8.28984 5.21723 8.37279 5.28752 8.44251L8.46752 11.6225C8.53724 11.6928 8.6202 11.7486 8.71159 11.7867C8.80298 11.8248 8.90101 11.8444 9.00002 11.8444C9.09903 11.8444 9.19706 11.8248 9.28846 11.7867C9.37985 11.7486 9.4628 11.6928 9.53252 11.6225L12.75 8.44251C12.8195 8.37243 12.8745 8.28932 12.9119 8.19794C12.9492 8.10656 12.9681 8.00872 12.9675 7.91001C12.9681 7.81131 12.9492 7.71346 12.9119 7.62208C12.8745 7.5307 12.8195 7.44759 12.75 7.37751C12.6095 7.23782 12.4194 7.15942 12.2213 7.15942C12.0231 7.15942 11.833 7.23782 11.6925 7.37751L9.00002 10.0325Z"
                    fill="#C8D2DC"></path>
            </g>
        </symbol>
        <symbol fill="none" xmlns="http://www.w3.org/2000/svg" viewBox="0 0 16 14" id="burgerMenu">
            <g id="Menu">
                <path id="Vector" d="M5 13L15 13M9 1L15 1M1 7H15" stroke="#FCFFFF"
                    stroke-width="1.5" stroke-linecap="round"></path>
            </g>
        </symbol>
    </svg>
</svg>