<svg width="1454" height="1341" viewBox="0 0 1454 1341" fill="none" xmlns="http://www.w3.org/2000/svg">
<g opacity="0.7" filter="url(#filter0_f_1053_2099)">
<ellipse cx="852.784" cy="693.767" rx="253.216" ry="326.275" transform="rotate(-180 852.784 693.767)" fill="#3626EA"/>
<path d="M571.341 660.559C571.341 480.362 531.949 321 671.797 321C811.644 321 925.013 467.078 925.013 647.275C925.013 827.472 811.644 973.55 671.797 973.55C231.782 935.36 571.34 840.755 571.341 660.559Z" fill="#7E51FF"/>
<path d="M488.379 571.036C522.464 454.408 527.034 343.791 617.825 370.325C708.615 396.858 754.585 512.914 720.5 629.542C686.415 746.17 585.184 819.206 494.393 792.672C215.954 684.47 454.294 687.664 488.379 571.036Z" fill="#376FFF"/>
</g>
<defs>
<filter id="filter0_f_1053_2099" x="-249.065" y="-249.065" width="1952.13" height="1839.13" filterUnits="userSpaceOnUse" color-interpolation-filters="sRGB">
<feFlood flood-opacity="0" result="BackgroundImageFix"/>
<feBlend mode="normal" in="SourceGraphic" in2="BackgroundImageFix" result="shape"/>
<feGaussianBlur stdDeviation="124.532" result="effect1_foregroundBlur_1053_2099"/>
</filter>
</defs>
</svg>
