<svg width="24" height="24" viewBox="0 0 24 24" fill="none" xmlns="http://www.w3.org/2000/svg">
<g id="pinterest">
<path id="Vector" d="M12.24 2.3999C6.95995 2.3999 4.19995 5.7599 4.19995 9.4799C4.19995 11.2799 5.15995 13.0799 6.71995 14.0399C7.19995 14.2799 7.07995 14.0399 7.43995 12.5999C7.43995 12.4799 7.43995 12.3599 7.31995 12.2399C5.15995 9.5999 6.95995 4.4399 12 4.4399C19.32 4.4399 17.88 14.5199 13.32 14.5199C12.36 14.6399 11.52 13.9199 11.52 12.9599V12.4799C12 11.1599 12.36 9.9599 12.48 8.6399C12.48 6.1199 8.75995 6.4799 8.75995 9.8399C8.75995 10.4399 8.87995 11.0399 9.11995 11.5199C9.11995 11.5199 7.91995 16.4399 7.67995 17.2799C7.43995 18.7199 7.55995 20.1599 7.79995 21.4799C7.67995 21.5999 7.79995 21.5999 7.79995 21.5999H7.91995C8.75995 20.3999 9.47995 19.1999 9.95995 17.8799C10.08 17.2799 10.68 15.1199 10.68 15.1199C11.28 15.9599 12.36 16.4399 13.44 16.4399C17.16 16.4399 19.8 13.1999 19.8 9.2399C19.8 5.2799 16.44 2.3999 12.24 2.3999Z" fill="url(#paint0_linear_44_748)"/>
</g>
<defs>
<linearGradient id="paint0_linear_44_748" x1="5.23739" y1="10.1999" x2="17.888" y2="11.0598" gradientUnits="userSpaceOnUse">
<stop stop-color="#68C9FF"/>
<stop offset="0.994746" stop-color="#D1B5FF"/>
</linearGradient>
</defs>
</svg>
