<svg width="765" height="991" viewBox="0 0 765 991" fill="none" xmlns="http://www.w3.org/2000/svg">
<g opacity="0.7" filter="url(#filter0_f_111_1540)">
<ellipse cx="503.216" cy="368.275" rx="253.216" ry="326.275" fill="#3626EA"/>
<path d="M784.66 401.484C784.66 581.68 824.051 741.042 684.203 741.042C544.356 741.042 430.987 594.964 430.987 414.767C430.987 234.57 544.356 88.4921 684.203 88.4921C1124.22 126.682 784.66 221.287 784.66 401.484Z" fill="#7E51FF"/>
<path d="M867.621 491.006C833.536 607.634 828.966 718.251 738.175 691.718C647.385 665.184 601.415 549.129 635.5 432.501C669.585 315.873 770.816 242.836 861.607 269.37C1140.05 377.573 901.706 374.378 867.621 491.006Z" fill="#86A8FF"/>
</g>
<defs>
<filter id="filter0_f_111_1540" x="0.935059" y="-207.065" width="1256.13" height="1197.17" filterUnits="userSpaceOnUse" color-interpolation-filters="sRGB">
<feFlood flood-opacity="0" result="BackgroundImageFix"/>
<feBlend mode="normal" in="SourceGraphic" in2="BackgroundImageFix" result="shape"/>
<feGaussianBlur stdDeviation="124.532" result="effect1_foregroundBlur_111_1540"/>
</filter>
</defs>
</svg>
