<svg
    version="1.1"
    xmlns="http://www.w3.org/2000/svg"
    xmlns:xlink="http://www.w3.org/1999/xlink"
>
    <symbol xmlns="http://www.w3.org/2000/svg" viewBox="0 0 20 20" id="logOut">
        <g id="Group">
            <path id="Vector"
                d="M7 19H3C2.46957 19 1.96086 18.7893 1.58579 18.4142C1.21071 18.0391 1 17.5304 1 17V3C1 2.46957 1.21071 1.96086 1.58579 1.58579C1.96086 1.21071 2.46957 1 3 1H7"
                stroke-width="2" stroke-linecap="round" stroke-linejoin="round"></path>
            <path id="Vector_2" d="M14 15L19 10L14 5" stroke-width="2"
                stroke-linecap="round" stroke-linejoin="round"></path>
            <path id="Vector_3" d="M19 10H7" stroke-width="2"
                stroke-linecap="round" stroke-linejoin="round"></path>
        </g>
    </symbol>
    <symbol fill="none" xmlns="http://www.w3.org/2000/svg" viewBox="0 0 18 19" id="Crown">
        <path
            d="M4.09069 15.2006C4.09069 15.3653 4.22267 15.5 4.39068 15.5H13.6123C13.7773 15.5 13.9123 15.3653 13.9123 15.2006V14.1049H4.09069V15.2006ZM16.3721 5.60323C16.2612 5.5284 16.1172 5.53434 16.0122 5.6152L12.0464 8.76241L9.26248 3.64484C9.16046 3.4502 8.84249 3.45325 8.73749 3.64484L5.95361 8.76241L1.98779 5.6152C1.88279 5.53137 1.7388 5.5284 1.63081 5.60323C1.51981 5.67811 1.47481 5.81587 1.51382 5.94161L3.97764 13.506H14.0252L16.4861 5.94161C16.5251 5.81587 16.4802 5.67811 16.3721 5.60323Z"
            fill="#FCFFFF"></path>
    </symbol>
</svg>