<svg width="24" height="24" viewBox="0 0 24 24" fill="none" xmlns="http://www.w3.org/2000/svg">
<g id="twitter">
<path id="Vector" d="M22.5 6.00011L20.25 6.37511L21.75 4.50011L19.125 5.25011C15.75 1.50011 10.5 5.62511 12 9.00011C6 9.00011 3 4.50011 3 4.50011C3 4.50011 0.75 7.87511 4.5 10.5001L2.25 9.75011C2.25 12.0001 3.75 13.5001 6.375 14.2501H3.75C5.25 17.2501 7.875 17.2501 7.875 17.2501C7.875 17.2501 5.625 19.1251 1.5 19.1251C13.875 25.1251 21.375 13.8751 20.25 7.87511L22.5 6.00011Z" fill="url(#paint0_linear_44_746)"/>
</g>
<defs>
<linearGradient id="paint0_linear_44_746" x1="2.89655" y1="10.6985" x2="19.8256" y2="12.4407" gradientUnits="userSpaceOnUse">
<stop stop-color="#68C9FF"/>
<stop offset="0.994746" stop-color="#D1B5FF"/>
</linearGradient>
</defs>
</svg>
